<svg id="SvgjsSvg1006" width="1086.5" height="392.5" xmlns="http://www.w3.org/2000/svg" version="1.1" xmlns:xlink="http://www.w3.org/1999/xlink" xmlns:svgjs="http://svgjs.com/svgjs"><defs id="SvgjsDefs1007"><marker id="SvgjsMarker1093" markerWidth="14" markerHeight="10" refX="10" refY="5" viewBox="0 0 14 10" orient="auto" markerUnits="userSpaceOnUse" stroke-dasharray="0,0"><path id="SvgjsPath1094" d="M0,0 L14,5 L0,10 L0,0" fill="#323232" stroke="#323232" stroke-width="1"></path></marker><marker id="SvgjsMarker1097" markerWidth="14" markerHeight="10" refX="10" refY="5" viewBox="0 0 14 10" orient="auto" markerUnits="userSpaceOnUse" stroke-dasharray="0,0"><path id="SvgjsPath1098" d="M0,0 L14,5 L0,10 L0,0" fill="#323232" stroke="#323232" stroke-width="1"></path></marker><marker id="SvgjsMarker1101" markerWidth="14" markerHeight="10" refX="10" refY="5" viewBox="0 0 14 10" orient="auto" markerUnits="userSpaceOnUse" stroke-dasharray="0,0"><path id="SvgjsPath1102" d="M0,0 L14,5 L0,10 L0,0" fill="#323232" stroke="#323232" stroke-width="1"></path></marker><marker id="SvgjsMarker1105" markerWidth="14" markerHeight="10" refX="10" refY="5" viewBox="0 0 14 10" orient="auto" markerUnits="userSpaceOnUse" stroke-dasharray="0,0"><path id="SvgjsPath1106" d="M0,0 L14,5 L0,10 L0,0" fill="#323232" stroke="#323232" stroke-width="1"></path></marker><marker id="SvgjsMarker1109" markerWidth="14" markerHeight="10" refX="10" refY="5" viewBox="0 0 14 10" orient="auto" markerUnits="userSpaceOnUse" stroke-dasharray="0,0"><path id="SvgjsPath1110" d="M0,0 L14,5 L0,10 L0,0" fill="#323232" stroke="#323232" stroke-width="1"></path></marker><marker id="SvgjsMarker1113" markerWidth="14" markerHeight="10" refX="10" refY="5" viewBox="0 0 14 10" orient="auto" markerUnits="userSpaceOnUse" stroke-dasharray="0,0"><path id="SvgjsPath1114" d="M0,0 L14,5 L0,10 L0,0" fill="#323232" stroke="#323232" stroke-width="1"></path></marker><marker id="SvgjsMarker1117" markerWidth="14" markerHeight="10" refX="10" refY="5" viewBox="0 0 14 10" orient="auto" markerUnits="userSpaceOnUse" stroke-dasharray="0,0"><path id="SvgjsPath1118" d="M0,0 L14,5 L0,10 L0,0" fill="#323232" stroke="#323232" stroke-width="1"></path></marker><marker id="SvgjsMarker1121" markerWidth="14" markerHeight="10" refX="10" refY="5" viewBox="0 0 14 10" orient="auto" markerUnits="userSpaceOnUse" stroke-dasharray="0,0"><path id="SvgjsPath1122" d="M0,0 L14,5 L0,10 L0,0" fill="#323232" stroke="#323232" stroke-width="1"></path></marker><marker id="SvgjsMarker1125" markerWidth="14" markerHeight="10" refX="10" refY="5" viewBox="0 0 14 10" orient="auto" markerUnits="userSpaceOnUse" stroke-dasharray="0,0"><path id="SvgjsPath1126" d="M0,0 L14,5 L0,10 L0,0" fill="#323232" stroke="#323232" stroke-width="1"></path></marker><marker id="SvgjsMarker1129" markerWidth="14" markerHeight="10" refX="10" refY="5" viewBox="0 0 14 10" orient="auto" markerUnits="userSpaceOnUse" stroke-dasharray="0,0"><path id="SvgjsPath1130" d="M0,0 L14,5 L0,10 L0,0" fill="#323232" stroke="#323232" stroke-width="1"></path></marker><marker id="SvgjsMarker1133" markerWidth="14" markerHeight="10" refX="10" refY="5" viewBox="0 0 14 10" orient="auto" markerUnits="userSpaceOnUse" stroke-dasharray="0,0"><path id="SvgjsPath1134" d="M0,0 L14,5 L0,10 L0,0" fill="#323232" stroke="#323232" stroke-width="1"></path></marker><marker id="SvgjsMarker1143" markerWidth="14" markerHeight="10" refX="10" refY="5" viewBox="0 0 14 10" orient="auto" markerUnits="userSpaceOnUse" stroke-dasharray="0,0"><path id="SvgjsPath1144" d="M0,0 L14,5 L0,10 L0,0" fill="#323232" stroke="#323232" stroke-width="1"></path></marker><marker id="SvgjsMarker1147" markerWidth="14" markerHeight="10" refX="10" refY="5" viewBox="0 0 14 10" orient="auto" markerUnits="userSpaceOnUse" stroke-dasharray="0,0"><path id="SvgjsPath1148" d="M0,0 L14,5 L0,10 L0,0" fill="#323232" stroke="#323232" stroke-width="1"></path></marker><marker id="SvgjsMarker1151" markerWidth="14" markerHeight="10" refX="10" refY="5" viewBox="0 0 14 10" orient="auto" markerUnits="userSpaceOnUse" stroke-dasharray="0,0"><path id="SvgjsPath1152" d="M0,0 L14,5 L0,10 L0,0" fill="#323232" stroke="#323232" stroke-width="1"></path></marker><marker id="SvgjsMarker1161" markerWidth="14" markerHeight="10" refX="10" refY="5" viewBox="0 0 14 10" orient="auto" markerUnits="userSpaceOnUse" stroke-dasharray="0,0"><path id="SvgjsPath1162" d="M0,0 L14,5 L0,10 L0,0" fill="#323232" stroke="#323232" stroke-width="1"></path></marker></defs><g id="SvgjsG1008" transform="translate(25,225.5)"><path id="SvgjsPath1009" d="M 0 4Q 0 0 4 0L 154 0Q 158 0 158 4L 158 36Q 158 40 154 40L 4 40Q 0 40 0 36Z" stroke="rgba(50,50,50,1)" stroke-width="2" fill-opacity="1" fill="#ffffff"></path><g id="SvgjsG1010"><text id="SvgjsText1011" font-family="微软雅黑" text-anchor="middle" font-size="16px" width="138px" fill="#323232" font-weight="700" align="middle" lineHeight="125%" anchor="middle" family="微软雅黑" size="16px" weight="700" font-style="" opacity="1" y="6" transform="rotate(0)"><tspan id="SvgjsTspan1012" dy="20" x="79"><tspan id="SvgjsTspan1013" style="text-decoration:;">Bash加载配置文件</tspan></tspan></text></g></g><g id="SvgjsG1014" transform="translate(244.5,109.5)"><path id="SvgjsPath1015" d="M 0 4Q 0 0 4 0L 109 0Q 113 0 113 4L 113 30Q 113 34 109 34L 4 34Q 0 34 0 30Z" stroke="rgba(50,50,50,1)" stroke-width="2" fill-opacity="1" fill="#ffffff"></path><g id="SvgjsG1016"><text id="SvgjsText1017" font-family="微软雅黑" text-anchor="middle" font-size="14px" width="93px" fill="#323232" font-weight="400" align="middle" lineHeight="125%" anchor="middle" family="微软雅黑" size="14px" weight="400" font-style="" opacity="1" y="5.75" transform="rotate(0)"><tspan id="SvgjsTspan1018" dy="17" x="56.5"><tspan id="SvgjsTspan1019" style="text-decoration:;">登陆Shell</tspan></tspan></text></g></g><g id="SvgjsG1020" transform="translate(244.5,299.5)"><path id="SvgjsPath1021" d="M 0 4Q 0 0 4 0L 109 0Q 113 0 113 4L 113 30Q 113 34 109 34L 4 34Q 0 34 0 30Z" stroke="rgba(50,50,50,1)" stroke-width="2" fill-opacity="1" fill="#ffffff"></path><g id="SvgjsG1022"><text id="SvgjsText1023" font-family="微软雅黑" text-anchor="middle" font-size="14px" width="93px" fill="#323232" font-weight="400" align="middle" lineHeight="125%" anchor="middle" family="微软雅黑" size="14px" weight="400" font-style="" opacity="1" y="5.75" transform="rotate(0)"><tspan id="SvgjsTspan1024" dy="17" x="56.5"><tspan id="SvgjsTspan1025" style="text-decoration:;">非登陆Shell</tspan></tspan></text></g></g><g id="SvgjsG1026" transform="translate(418,109.5)"><path id="SvgjsPath1027" d="M 0 4Q 0 0 4 0L 146 0Q 150 0 150 4L 150 30Q 150 34 146 34L 4 34Q 0 34 0 30Z" stroke="rgba(50,50,50,1)" stroke-width="2" fill-opacity="1" fill="#ffffff"></path><g id="SvgjsG1028"><text id="SvgjsText1029" font-family="微软雅黑" text-anchor="middle" font-size="14px" width="130px" fill="#323232" font-weight="400" align="middle" lineHeight="125%" anchor="middle" family="微软雅黑" size="14px" weight="400" font-style="" opacity="1" y="5.75" transform="rotate(0)"><tspan id="SvgjsTspan1030" dy="17" x="75"><tspan id="SvgjsTspan1031" style="text-decoration:;">加载</tspan><tspan id="SvgjsTspan1032" style="text-decoration:;font-weight: bold;">/etc/profile</tspan><tspan id="SvgjsTspan1033" style="text-decoration:;"> </tspan></tspan></text></g></g><g id="SvgjsG1034" transform="translate(627.5,25)"><path id="SvgjsPath1035" d="M 0 4Q 0 0 4 0L 171 0Q 175 0 175 4L 175 30Q 175 34 171 34L 4 34Q 0 34 0 30Z" stroke="rgba(50,50,50,1)" stroke-width="2" fill-opacity="1" fill="#ffffff"></path><g id="SvgjsG1036"><text id="SvgjsText1037" font-family="微软雅黑" text-anchor="middle" font-size="14px" width="155px" fill="#323232" font-weight="400" align="middle" lineHeight="125%" anchor="middle" family="微软雅黑" size="14px" weight="400" font-style="" opacity="1" y="5.75" transform="rotate(0)"><tspan id="SvgjsTspan1038" dy="17" x="87.5"><tspan id="SvgjsTspan1039" style="text-decoration:;">加载</tspan><tspan id="SvgjsTspan1040" style="text-decoration:;font-weight: bold;">~/.bash_profile</tspan></tspan></text></g></g><g id="SvgjsG1041" transform="translate(627.5,80.5)"><path id="SvgjsPath1042" d="M 0 4Q 0 0 4 0L 171 0Q 175 0 175 4L 175 30Q 175 34 171 34L 4 34Q 0 34 0 30Z" stroke="rgba(50,50,50,1)" stroke-width="2" fill-opacity="1" fill="#ffffff"></path><g id="SvgjsG1043"><text id="SvgjsText1044" font-family="微软雅黑" text-anchor="middle" font-size="14px" width="155px" fill="#323232" font-weight="400" align="middle" lineHeight="125%" anchor="middle" family="微软雅黑" size="14px" weight="400" font-style="" opacity="1" y="5.75" transform="rotate(0)"><tspan id="SvgjsTspan1045" dy="17" x="87.5"><tspan id="SvgjsTspan1046" style="text-decoration:;">加载</tspan><tspan id="SvgjsTspan1047" style="text-decoration:;font-weight: bold;">~/.bash_login</tspan></tspan></text></g></g><g id="SvgjsG1048" transform="translate(627.5,136)"><path id="SvgjsPath1049" d="M 0 4Q 0 0 4 0L 171 0Q 175 0 175 4L 175 30Q 175 34 171 34L 4 34Q 0 34 0 30Z" stroke="rgba(50,50,50,1)" stroke-width="2" fill-opacity="1" fill="#ffffff"></path><g id="SvgjsG1050"><text id="SvgjsText1051" font-family="微软雅黑" text-anchor="middle" font-size="14px" width="155px" fill="#323232" font-weight="400" align="middle" lineHeight="125%" anchor="middle" family="微软雅黑" size="14px" weight="400" font-style="" opacity="1" y="5.75" transform="rotate(0)"><tspan id="SvgjsTspan1052" dy="17" x="87.5"><tspan id="SvgjsTspan1053" style="text-decoration:;">加载</tspan><tspan id="SvgjsTspan1054" style="text-decoration:;font-weight: bold;">~/.profile</tspan></tspan></text></g></g><g id="SvgjsG1055" transform="translate(627.5,191.5)"><path id="SvgjsPath1056" d="M 0 4Q 0 0 4 0L 171 0Q 175 0 175 4L 175 30Q 175 34 171 34L 4 34Q 0 34 0 30Z" stroke="rgba(50,50,50,1)" stroke-width="2" fill-opacity="1" fill="#ffffff"></path><g id="SvgjsG1057"><text id="SvgjsText1058" font-family="微软雅黑" text-anchor="middle" font-size="14px" width="155px" fill="#323232" font-weight="400" align="middle" lineHeight="125%" anchor="middle" family="微软雅黑" size="14px" weight="400" font-style="" opacity="1" y="5.75" transform="rotate(0)"><tspan id="SvgjsTspan1059" dy="17" x="87.5"><tspan id="SvgjsTspan1060" style="text-decoration:;">加载</tspan><tspan id="SvgjsTspan1061" style="text-decoration:;font-weight: bold;">~/.bash_logout</tspan></tspan></text></g></g><g id="SvgjsG1062" transform="translate(418,265.5)"><path id="SvgjsPath1063" d="M 0 4Q 0 0 4 0L 146 0Q 150 0 150 4L 150 30Q 150 34 146 34L 4 34Q 0 34 0 30Z" stroke="rgba(50,50,50,1)" stroke-width="2" fill-opacity="1" fill="#ffffff"></path><g id="SvgjsG1064"><text id="SvgjsText1065" font-family="微软雅黑" text-anchor="middle" font-size="14px" width="130px" fill="#323232" font-weight="400" align="middle" lineHeight="125%" anchor="middle" family="微软雅黑" size="14px" weight="400" font-style="" opacity="1" y="5.75" transform="rotate(0)"><tspan id="SvgjsTspan1066" dy="17" x="75"><tspan id="SvgjsTspan1067" style="text-decoration:;">交互式</tspan><tspan id="SvgjsTspan1068" style="text-decoration:;font-size: inherit;">Shell</tspan></tspan></text></g></g><g id="SvgjsG1069" transform="translate(418,333.5)"><path id="SvgjsPath1070" d="M 0 4Q 0 0 4 0L 146 0Q 150 0 150 4L 150 30Q 150 34 146 34L 4 34Q 0 34 0 30Z" stroke="rgba(50,50,50,1)" stroke-width="2" fill-opacity="1" fill="#ffffff"></path><g id="SvgjsG1071"><text id="SvgjsText1072" font-family="微软雅黑" text-anchor="middle" font-size="14px" width="130px" fill="#323232" font-weight="400" align="middle" lineHeight="125%" anchor="middle" family="微软雅黑" size="14px" weight="400" font-style="" opacity="1" y="5.75" transform="rotate(0)"><tspan id="SvgjsTspan1073" dy="17" x="75"><tspan id="SvgjsTspan1074" style="text-decoration:;">非交互式</tspan><tspan id="SvgjsTspan1075" style="text-decoration:;font-size: inherit;">Shell</tspan></tspan></text></g></g><g id="SvgjsG1076" transform="translate(627.5,265.5)"><path id="SvgjsPath1077" d="M 0 4Q 0 0 4 0L 171 0Q 175 0 175 4L 175 30Q 175 34 171 34L 4 34Q 0 34 0 30Z" stroke="rgba(50,50,50,1)" stroke-width="2" fill-opacity="1" fill="#ffffff"></path><g id="SvgjsG1078"><text id="SvgjsText1079" font-family="微软雅黑" text-anchor="middle" font-size="14px" width="155px" fill="#323232" font-weight="400" align="middle" lineHeight="125%" anchor="middle" family="微软雅黑" size="14px" weight="400" font-style="" opacity="1" y="5.75" transform="rotate(0)"><tspan id="SvgjsTspan1080" dy="17" x="87.5"><tspan id="SvgjsTspan1081" style="text-decoration:;">加载</tspan><tspan id="SvgjsTspan1082" style="text-decoration:;font-weight: bold;">~/.bashrc</tspan></tspan></text></g></g><g id="SvgjsG1083" transform="translate(627.5,333.5)"><path id="SvgjsPath1084" d="M 0 4Q 0 0 4 0L 171 0Q 175 0 175 4L 175 30Q 175 34 171 34L 4 34Q 0 34 0 30Z" stroke="rgba(50,50,50,1)" stroke-width="2" fill-opacity="1" fill="#ffffff"></path><g id="SvgjsG1085"><text id="SvgjsText1086" font-family="微软雅黑" text-anchor="middle" font-size="14px" width="155px" fill="#323232" font-weight="400" align="middle" lineHeight="125%" anchor="middle" family="微软雅黑" size="14px" weight="400" font-style="" opacity="1" y="5.75" transform="rotate(0)"><tspan id="SvgjsTspan1087" dy="17" x="87.5"><tspan id="SvgjsTspan1088" style="text-decoration:;">根据</tspan><tspan id="SvgjsTspan1089" style="text-decoration:;font-weight: bold;">$BASH_ENV</tspan><tspan id="SvgjsTspan1090" style="text-decoration:;">加载</tspan></tspan></text></g></g><g id="SvgjsG1091"><path id="SvgjsPath1092" d="M569 282.5L597.5 282.5L597.5 282.5L623.9 282.5" stroke="#323232" stroke-width="2" fill="none" marker-end="url(#SvgjsMarker1093)"></path></g><g id="SvgjsG1095"><path id="SvgjsPath1096" d="M358.47751016307615 316.2891116857604C 385.08550343930665 316.5 389.91449656069335 282.5 414.4783434893192 283.24695074856334" stroke="#323232" stroke-width="2" fill="none" marker-end="url(#SvgjsMarker1097)"></path></g><g id="SvgjsG1099"><path id="SvgjsPath1100" d="M358.47751016307615 316.7108883142396C 385.08550343930665 316.5 389.91449656069335 350.5 414.4783434893192 349.75304925143666" stroke="#323232" stroke-width="2" fill="none" marker-end="url(#SvgjsMarker1101)"></path></g><g id="SvgjsG1103"><path id="SvgjsPath1104" d="M569 350.5C 591.5 350.5 603.5 350.5 623.9 350.5" stroke="#323232" stroke-width="2" fill="none" marker-end="url(#SvgjsMarker1105)"></path></g><g id="SvgjsG1107"><path id="SvgjsPath1108" d="M183.9669038701769 245.75514095288077C 220.442222156277 245.5 206.557777843723 316.5 241.01606358486936 315.5932546910369" stroke="#323232" stroke-width="2" fill="none" marker-end="url(#SvgjsMarker1109)"></path></g><g id="SvgjsG1111"><path id="SvgjsPath1112" d="M568.9804962310394 126.30346211327733C 594.1563313304738 126.5 600.8436686695262 97.5 623.9678536806053 98.19565967138168" stroke="#323232" stroke-width="2" fill="none" marker-end="url(#SvgjsMarker1113)"></path></g><g id="SvgjsG1115"><path id="SvgjsPath1116" d="M568.9665530359055 126.24353318190848C 608.9540709701713 126.5 586.0459290298287 42 624.0174971467237 42.91223564769339" stroke="#323232" stroke-width="2" fill="none" marker-end="url(#SvgjsMarker1117)"></path></g><g id="SvgjsG1119"><path id="SvgjsPath1120" d="M568.9828122978378 126.68460765753042C 593.7366156354054 126.5 601.2633843645946 153 623.9597732260826 152.34670497534555" stroke="#323232" stroke-width="2" fill="none" marker-end="url(#SvgjsMarker1121)"></path></g><g id="SvgjsG1123"><path id="SvgjsPath1124" d="M568.9660388216291 126.75839697193547C 608.1428345468178 126.5 586.8571654531822 208.5 624.0192554258884 207.58107823521658" stroke="#323232" stroke-width="2" fill="none" marker-end="url(#SvgjsMarker1125)"></path></g><g id="SvgjsG1127"><path id="SvgjsPath1128" d="M358.5 126.5C 381.5 126.5 393.5 126.5 414.4 126.5" stroke="#323232" stroke-width="2" fill="none" marker-end="url(#SvgjsMarker1129)"></path></g><g id="SvgjsG1131"><path id="SvgjsPath1132" d="M183.97614084859595 245.28286169453008C 236.6674948176268 245.5 190.3325051823732 126 240.9770383257167 127.24077057280309" stroke="#323232" stroke-width="2" fill="none" marker-end="url(#SvgjsMarker1133)"></path></g><g id="SvgjsG1135" transform="translate(862.5,80.5)"><path id="SvgjsPath1136" d="M 0 0L 199.5 0L 199.5 34L 0 34Z" stroke="none" fill="none"></path><g id="SvgjsG1137"><text id="SvgjsText1138" font-family="微软雅黑" text-anchor="start" font-size="15px" width="200px" fill="#ff0000" font-weight="700" align="middle" lineHeight="125%" anchor="start" family="微软雅黑" size="15px" weight="700" font-style="" opacity="1" y="5.125" transform="rotate(0)"><tspan id="SvgjsTspan1139" dy="18" x="0"><tspan id="SvgjsTspan1140" style="text-decoration:;">从上往下，加载其中任意一个</tspan></tspan></text></g></g><g id="SvgjsG1141"><path id="SvgjsPath1142" d="M803.5 97.5C 826.5 97.5 838.5 97.5 858.9 97.5" stroke="#323232" stroke-width="2" fill="none" marker-end="url(#SvgjsMarker1143)"></path></g><g id="SvgjsG1145"><path id="SvgjsPath1146" d="M803.4664285601292 42.25693547471409C 835.1931185419807 41.99999999999999 829.8068814580193 97.5 859.0208571835348 96.57503229102929" stroke="#323232" stroke-width="2" fill="none" marker-end="url(#SvgjsMarker1147)"></path></g><g id="SvgjsG1149"><path id="SvgjsPath1150" d="M803.4664285601292 152.74306452528592C 835.1931185419807 153 829.8068814580193 97.5 859.0208571835348 98.42496770897071" stroke="#323232" stroke-width="2" fill="none" marker-end="url(#SvgjsMarker1151)"></path></g><g id="SvgjsG1153" transform="translate(862.5,191.5)"><path id="SvgjsPath1154" d="M 0 0L 184.5 0L 184.5 34L 0 34Z" stroke="none" fill="none"></path><g id="SvgjsG1155"><text id="SvgjsText1156" font-family="微软雅黑" text-anchor="start" font-size="15px" width="185px" fill="#1976d2" font-weight="700" align="middle" lineHeight="125%" anchor="start" family="微软雅黑" size="15px" weight="700" font-style="" opacity="1" y="5.125" transform="rotate(0)"><tspan id="SvgjsTspan1157" dy="18" x="0"><tspan id="SvgjsTspan1158" style="text-decoration:;">退出登陆时加载</tspan></tspan></text></g></g><g id="SvgjsG1159"><path id="SvgjsPath1160" d="M803.5 208.5C 826.5 208.5 838.5 208.5 858.9 208.5" stroke="#323232" stroke-width="2" fill="none" marker-end="url(#SvgjsMarker1161)"></path></g></svg>